<?xml version="1.0" encoding="utf-8"?>
<!-- Generator: Adobe Illustrator 19.0.0, SVG Export Plug-In . SVG Version: 6.00 Build 0)  -->
<svg version="1.1" id="Logo_2" xmlns="http://www.w3.org/2000/svg" xmlns:xlink="http://www.w3.org/1999/xlink" x="0px" y="0px"
	 viewBox="0 0 300 300" style="enable-background:new 0 0 300 300;" xml:space="preserve">
<style type="text/css">
	.st0{fill:none;stroke:#CCCCCC;stroke-width:10;stroke-miterlimit:10;}
	.st1{fill:#ED8721;}
	.st2{fill:none;stroke:#CCCCCC;stroke-width:2;stroke-miterlimit:10;}
	.st3{fill:none;stroke:#CCCCCC;stroke-width:2;stroke-miterlimit:10;stroke-dasharray:7,7;}
	.st4{fill:none;stroke:#CCCCCC;stroke-width:2;stroke-miterlimit:10;stroke-dasharray:8,8;}
	.st5{fill:none;stroke:#63BBF7;stroke-width:2;stroke-miterlimit:10;}
	.st6{fill:none;stroke:#63BBF7;stroke-width:2;stroke-miterlimit:10;stroke-dasharray:8,8;}
	.st7{fill:none;stroke:#63BBF7;stroke-width:2;stroke-miterlimit:10;stroke-dasharray:7,7;}
</style>
<path id="Quadrado" class="st0" d="M280.25,290.25H19.75c-5.52,0-10-4.48-10-10V19.75c0-5.52,4.48-10,10-10h260.5
	c5.52,0,10,4.48,10,10v260.5C290.25,285.77,285.77,290.25,280.25,290.25z"/>
<line id="Linha_vertical" class="st0" x1="150" y1="290" x2="150" y2="10"/>
<line id="Linha_horizontal" class="st0" x1="10" y1="151" x2="290" y2="151"/>
<path id="J" class="st1" d="M93.65,59.2v36.23c0,4.98-1.86,9.29-5.57,12.94c-3.71,3.65-8.14,5.47-13.28,5.47
	c-3.09,0-6.13-0.71-9.11-2.12s-6.23-3.74-9.74-6.96V89.62c0-0.98,0.2-1.68,0.59-2.1c0.39-0.42,0.88-0.63,1.46-0.63
	c0.62,0,1.12,0.21,1.51,0.63c0.39,0.42,0.59,1.12,0.59,2.1l-0.05,13.18c2.51,2.31,4.99,4.04,7.45,5.2c2.46,1.16,4.89,1.73,7.3,1.73
	c2.67,0,5.19-0.65,7.57-1.95c1.79-0.98,3.43-2.62,4.91-4.93c1.48-2.31,2.22-4.79,2.22-7.42V59.2H73.44c-1.01,0-1.73-0.19-2.15-0.56
	c-0.42-0.37-0.63-0.87-0.63-1.49c0-0.62,0.21-1.11,0.63-1.49c0.42-0.37,1.14-0.56,2.15-0.56h29.98c0.98,0,1.68,0.19,2.1,0.56
	c0.42,0.37,0.63,0.87,0.63,1.49c0,0.62-0.21,1.12-0.63,1.49c-0.42,0.37-1.12,0.56-2.1,0.56H93.65z"/>
<path id="a" class="st1" d="M233.94,112.23v-5.91c-5.96,5.01-12.32,7.52-19.09,7.52c-4.92,0-8.76-1.25-11.52-3.74
	c-2.77-2.49-4.15-5.54-4.15-9.16c0-3.97,1.82-7.44,5.47-10.4c3.65-2.96,8.97-4.44,15.97-4.44c1.89,0,3.94,0.12,6.15,0.37
	c2.21,0.24,4.61,0.63,7.18,1.15v-6.64c0-2.25-1.04-4.2-3.13-5.86c-2.08-1.66-5.21-2.49-9.38-2.49c-3.19,0-7.67,0.93-13.43,2.78
	c-1.04,0.33-1.71,0.49-2,0.49c-0.52,0-0.97-0.2-1.34-0.59c-0.37-0.39-0.56-0.88-0.56-1.46c0-0.55,0.16-0.99,0.49-1.32
	c0.46-0.49,2.29-1.16,5.52-2c5.08-1.37,8.92-2.05,11.52-2.05c5.18,0,9.21,1.28,12.11,3.83c2.9,2.56,4.35,5.44,4.35,8.67v27.15h5.47
	c1.01,0,1.73,0.19,2.15,0.56c0.42,0.37,0.63,0.87,0.63,1.49c0,0.59-0.21,1.07-0.63,1.46c-0.42,0.39-1.14,0.59-2.15,0.59H233.94z
	 M233.94,91.82c-1.92-0.55-3.96-0.96-6.1-1.22c-2.15-0.26-4.41-0.39-6.79-0.39c-5.96,0-10.61,1.29-13.96,3.86
	c-2.54,1.92-3.81,4.22-3.81,6.88c0,2.47,0.97,4.56,2.91,6.25c1.94,1.69,4.76,2.54,8.47,2.54c3.55,0,6.84-0.71,9.89-2.12
	c3.04-1.42,6.18-3.67,9.4-6.76V91.82z"/>
<path id="g" class="st1" d="M89.58,211.96v-7.52h9.62c0.98,0,1.68,0.2,2.1,0.59c0.42,0.39,0.63,0.9,0.63,1.51
	c0,0.59-0.21,1.07-0.63,1.46c-0.42,0.39-1.12,0.59-2.1,0.59h-5.52v40.97c0,2.73-0.59,5.18-1.76,7.32c-0.78,1.43-2.08,2.91-3.91,4.44
	c-1.82,1.53-3.48,2.62-4.98,3.27c-1.5,0.65-3.5,0.98-6.01,0.98H65.41c-0.98,0-1.68-0.19-2.1-0.56c-0.42-0.38-0.63-0.87-0.63-1.49
	c0-0.62,0.21-1.12,0.63-1.51s1.12-0.59,2.1-0.59l11.77,0.05c2.41,0,4.58-0.62,6.52-1.86c1.94-1.24,3.54-3.04,4.81-5.42
	c0.72-1.37,1.07-3.11,1.07-5.22v-12.3c-4.39,6.02-10.06,9.03-16.99,9.03c-5.63,0-10.49-2.09-14.58-6.27
	c-4.08-4.18-6.13-9.22-6.13-15.11c0-5.89,2.04-10.92,6.13-15.09c4.08-4.17,8.94-6.25,14.58-6.25
	C79.52,202.98,85.18,205.97,89.58,211.96z M89.58,224.31c0-4.82-1.65-8.89-4.96-12.21s-7.25-4.98-11.84-4.98s-8.53,1.67-11.82,5
	c-3.29,3.34-4.93,7.4-4.93,12.18c0,4.82,1.64,8.9,4.93,12.23c3.29,3.34,7.23,5,11.82,5s8.54-1.67,11.84-5
	C87.92,233.21,89.58,229.13,89.58,224.31z"/>
<path id="s" class="st1" d="M231.62,204.28c0-0.94,0.2-1.63,0.59-2.05c0.39-0.42,0.88-0.63,1.46-0.63c0.62,0,1.12,0.21,1.51,0.63
	c0.39,0.42,0.59,1.14,0.59,2.15v7.03c0,0.98-0.2,1.68-0.59,2.1c-0.39,0.42-0.9,0.63-1.51,0.63c-0.55,0-1.02-0.18-1.39-0.54
	c-0.38-0.36-0.59-0.94-0.66-1.76c-0.2-1.95-1.21-3.56-3.03-4.83c-2.67-1.82-6.2-2.73-10.6-2.73c-4.59,0-8.15,0.93-10.69,2.78
	c-1.92,1.4-2.88,2.96-2.88,4.69c0,1.95,1.14,3.58,3.42,4.88c1.56,0.91,4.52,1.61,8.89,2.1c5.7,0.62,9.65,1.32,11.87,2.1
	c3.16,1.14,5.51,2.72,7.06,4.74c1.55,2.02,2.32,4.2,2.32,6.54c0,3.48-1.68,6.58-5.03,9.3c-3.35,2.72-8.27,4.08-14.75,4.08
	c-6.48,0-11.78-1.64-15.92-4.93c0,1.11-0.07,1.82-0.2,2.15c-0.13,0.33-0.37,0.6-0.71,0.83c-0.34,0.23-0.72,0.34-1.15,0.34
	c-0.59,0-1.07-0.21-1.46-0.63c-0.39-0.42-0.59-1.12-0.59-2.1v-8.45c0-0.98,0.19-1.68,0.56-2.1c0.37-0.42,0.87-0.63,1.49-0.63
	c0.59,0,1.08,0.2,1.49,0.61c0.41,0.41,0.61,0.95,0.61,1.64c0,1.5,0.37,2.75,1.12,3.76c1.14,1.56,2.95,2.86,5.44,3.88
	s5.54,1.54,9.16,1.54c5.34,0,9.31-0.99,11.91-2.98c2.6-1.99,3.91-4.08,3.91-6.3c0-2.54-1.32-4.57-3.96-6.1
	c-2.67-1.53-6.55-2.56-11.65-3.08c-5.09-0.52-8.75-1.2-10.96-2.05c-2.21-0.85-3.94-2.12-5.18-3.81c-1.24-1.69-1.86-3.52-1.86-5.47
	c0-3.52,1.72-6.31,5.18-8.37c3.45-2.07,7.57-3.1,12.35-3.1C223.47,200.13,228.07,201.51,231.62,204.28z"/>
<g id="Guia_lateral_1">
	<g id="XMLID_173_">
		<line id="XMLID_176_" class="st2" x1="290" y1="69" x2="286" y2="69"/>
		<line id="XMLID_175_" class="st3" x1="279" y1="69" x2="254" y2="69"/>
		<line id="XMLID_174_" class="st2" x1="250" y1="69" x2="246" y2="69"/>
	</g>
</g>
<g id="Guia_lateral_2">
	<g id="XMLID_187_">
		<line id="XMLID_190_" class="st2" x1="290" y1="114" x2="286" y2="114"/>
		<line id="XMLID_189_" class="st3" x1="279" y1="114" x2="254" y2="114"/>
		<line id="XMLID_188_" class="st2" x1="250" y1="114" x2="246" y2="114"/>
	</g>
</g>
<g id="Guia_lateral_3">
	<g id="XMLID_47_">
		<line id="XMLID_50_" class="st2" x1="290" y1="246" x2="286" y2="246"/>
		<line id="XMLID_49_" class="st3" x1="279" y1="246" x2="254" y2="246"/>
		<line id="XMLID_48_" class="st2" x1="250" y1="246" x2="246" y2="246"/>
	</g>
</g>
<g id="Guia_lateral_4">
	<g id="XMLID_52_">
		<line id="XMLID_55_" class="st2" x1="54" y1="246" x2="50" y2="246"/>
		<line id="XMLID_54_" class="st3" x1="43" y1="246" x2="18" y2="246"/>
		<line id="XMLID_53_" class="st2" x1="14" y1="246" x2="10" y2="246"/>
	</g>
</g>
<g id="Guia_lateral_5">
	<g id="XMLID_56_">
		<line id="XMLID_59_" class="st2" x1="54" y1="264" x2="50" y2="264"/>
		<line id="XMLID_58_" class="st3" x1="43" y1="264" x2="18" y2="264"/>
		<line id="XMLID_57_" class="st2" x1="14" y1="264" x2="10" y2="264"/>
	</g>
</g>
<g id="Guia_lateral_6">
	<g id="XMLID_177_">
		<line id="XMLID_180_" class="st2" x1="54" y1="69" x2="50" y2="69"/>
		<line id="XMLID_179_" class="st3" x1="43" y1="69" x2="18" y2="69"/>
		<line id="XMLID_178_" class="st2" x1="14" y1="69" x2="10" y2="69"/>
	</g>
</g>
<g id="Guia_lateral_7">
	<g id="XMLID_182_">
		<line id="XMLID_185_" class="st2" x1="54" y1="55" x2="50" y2="55"/>
		<line id="XMLID_184_" class="st3" x1="43" y1="55" x2="18" y2="55"/>
		<line id="XMLID_183_" class="st2" x1="14" y1="55" x2="10" y2="55"/>
	</g>
</g>
<g id="Guia_lateral_8">
	<g id="XMLID_41_">
		<line id="XMLID_44_" class="st2" x1="71" y1="41" x2="71" y2="37"/>
		<line id="XMLID_43_" class="st4" x1="71" y1="29" x2="71" y2="18"/>
		<line id="XMLID_42_" class="st2" x1="71" y1="14" x2="71" y2="10"/>
	</g>
</g>
<g id="Guia_lateral_9">
	<g id="XMLID_62_">
		<line id="XMLID_65_" class="st2" x1="238" y1="41" x2="238" y2="37"/>
		<line id="XMLID_64_" class="st4" x1="238" y1="29" x2="238" y2="18"/>
		<line id="XMLID_63_" class="st2" x1="238" y1="14" x2="238" y2="10"/>
	</g>
</g>
<g id="Guia_lateral_10">
	<g id="XMLID_168_">
		<line id="XMLID_191_" class="st2" x1="203" y1="41" x2="203" y2="37"/>
		<line id="XMLID_170_" class="st4" x1="203" y1="29" x2="203" y2="18"/>
		<line id="XMLID_169_" class="st2" x1="203" y1="14" x2="203" y2="10"/>
	</g>
</g>
<g id="Guia_lateral_11">
	<g id="XMLID_193_">
		<line id="XMLID_196_" class="st2" x1="203" y1="290" x2="203" y2="286"/>
		<line id="XMLID_195_" class="st4" x1="203" y1="278" x2="203" y2="267"/>
		<line id="XMLID_194_" class="st2" x1="203" y1="263" x2="203" y2="259"/>
	</g>
</g>
<g id="Guia_lateral_12">
	<g id="XMLID_153_">
		<line id="XMLID_156_" class="st2" x1="238" y1="290" x2="238" y2="286"/>
		<line id="XMLID_155_" class="st4" x1="238" y1="278" x2="238" y2="267"/>
		<line id="XMLID_154_" class="st2" x1="238" y1="263" x2="238" y2="259"/>
	</g>
</g>
<g id="Guia_lateral_13">
	<g id="XMLID_158_">
		<line id="XMLID_161_" class="st2" x1="94" y1="290" x2="94" y2="286"/>
		<line id="XMLID_160_" class="st4" x1="94" y1="278" x2="94" y2="267"/>
		<line id="XMLID_159_" class="st2" x1="94" y1="263" x2="94" y2="259"/>
	</g>
</g>
<g id="Guia_central_1">
	<g id="XMLID_148_">
		<line id="XMLID_151_" class="st5" x1="94" y1="196" x2="94" y2="192"/>
		<line id="XMLID_150_" class="st6" x1="94" y1="184" x2="94" y2="122"/>
		<line id="XMLID_149_" class="st5" x1="94" y1="118" x2="94" y2="114"/>
	</g>
</g>
<g id="Guia_central_2">
	<g id="XMLID_126_">
		<line id="XMLID_129_" class="st5" x1="238" y1="196" x2="238" y2="192"/>
		<line id="XMLID_128_" class="st6" x1="238" y1="184" x2="238" y2="122"/>
		<line id="XMLID_127_" class="st5" x1="238" y1="118" x2="238" y2="114"/>
	</g>
</g>
<g id="Guia_central_3">
	<g id="XMLID_121_">
		<line id="XMLID_124_" class="st5" x1="195" y1="246" x2="191" y2="246"/>
		<line id="XMLID_123_" class="st6" x1="183" y1="246" x2="106" y2="246"/>
		<line id="XMLID_122_" class="st5" x1="102" y1="246" x2="98" y2="246"/>
	</g>
</g>
<g id="Guia_central_4">
	<g id="XMLID_93_">
		<line id="XMLID_101_" class="st5" x1="195" y1="69" x2="191" y2="69"/>
		<line id="XMLID_98_" class="st7" x1="184" y1="69" x2="114" y2="69"/>
		<line id="XMLID_95_" class="st5" x1="110" y1="69" x2="106" y2="69"/>
	</g>
</g>
<g id="Guia_central_5">
	<g id="XMLID_36_">
		<line id="XMLID_39_" class="st5" x1="191" y1="114" x2="187" y2="114"/>
		<line id="XMLID_38_" class="st6" x1="179" y1="114" x2="102" y2="114"/>
		<line id="XMLID_37_" class="st5" x1="98" y1="114" x2="94" y2="114"/>
	</g>
</g>
</svg>
